<svg width="176" height="45" viewBox="0 0 176 45" fill="none" xmlns="http://www.w3.org/2000/svg"><g clip-path="url(#clip0_2287_5034)"><g clip-path="url(#clip1_2287_5034)"><path fill-rule="evenodd" clip-rule="evenodd" d="M54.9066 12.5037C51.6618 12.5037 49.2176 14.9557 49.2176 17.7652V20.6812C49.2176 23.4907 51.6661 25.9427 54.9066 25.9427C56.4992 25.9427 57.6107 25.4744 59.2245 24.308C60.1188 23.661 61.375 23.8568 62.0265 24.7465C62.678 25.6362 62.4779 26.8834 61.5836 27.5305C59.5695 28.9863 57.6447 29.9271 54.9066 29.9271C49.6477 29.9314 45.2063 25.8916 45.2063 20.6854V17.7695C45.2063 12.5633 49.6477 8.51929 54.9066 8.51929C57.6447 8.51929 59.5695 9.46431 61.5836 10.9159C62.4779 11.563 62.678 12.8102 62.0265 13.6999C61.375 14.5896 60.1188 14.7854 59.2245 14.1384C57.6107 12.972 56.4992 12.5037 54.9066 12.5037ZM74.6054 12.5037C71.45 12.5037 68.8951 15.0451 68.8951 18.1824V20.3151C68.8951 23.4524 71.4543 25.9938 74.6054 25.9938C77.7565 25.9938 80.2732 23.4652 80.2732 20.3151V18.1824C80.2732 15.028 77.7438 12.5037 74.6054 12.5037ZM64.8838 18.1824C64.8838 12.8443 69.2357 8.51929 74.6054 8.51929C79.9751 8.51929 84.2845 12.8613 84.2845 18.1866V20.3193C84.2845 25.6404 79.9921 29.9867 74.6054 29.9867C69.2187 29.9867 64.8838 25.6575 64.8838 20.3193V18.1866V18.1824ZM97.5788 12.6101C94.4192 12.6101 91.8685 15.1472 91.8685 18.2633C91.8685 21.3793 94.4192 23.9164 97.5788 23.9164C100.738 23.9164 103.247 21.3963 103.247 18.2633C103.247 15.1302 100.726 12.6101 97.5788 12.6101ZM87.8572 18.2633C87.8572 12.9337 92.2176 8.62571 97.5788 8.62571C99.8612 8.62571 101.948 9.40472 103.596 10.7073L105.099 9.21316C105.882 8.43415 107.151 8.43415 107.935 9.21316C108.718 9.99217 108.718 11.2522 107.935 12.0312L106.159 13.7936C106.862 15.1302 107.258 16.6542 107.258 18.2633C107.258 23.5758 102.961 27.9008 97.5788 27.9008C97.5235 27.9008 97.4724 27.9008 97.417 27.9008H93.1587C92.4433 27.9008 91.8685 28.4755 91.8685 29.1864C91.8685 29.8973 92.4476 30.472 93.1587 30.472H98.6562H100.415C101.863 30.472 103.357 30.8721 104.562 31.8172C105.806 32.7962 106.594 34.2436 106.734 36.0229C106.981 39.173 104.758 41.3228 102.953 42.0166L97.928 44.2217C96.9145 44.6687 95.7307 44.2132 95.2836 43.2043C94.8365 42.1997 95.2964 41.0205 96.3056 40.5778L101.381 38.3515C101.42 38.3344 101.458 38.3174 101.496 38.3046C101.709 38.228 102.071 37.9939 102.357 37.615C102.616 37.2617 102.774 36.8403 102.731 36.338C102.676 35.61 102.391 35.2014 102.071 34.9502C101.714 34.6693 101.147 34.4649 100.411 34.4649H93.2439C93.2226 34.4649 93.2013 34.4649 93.18 34.4649H93.1545C90.2248 34.4649 87.8529 32.1066 87.8529 29.1949C87.8529 27.3091 88.8493 25.6532 90.3483 24.7209C88.7983 23.0139 87.8529 20.7535 87.8529 18.2718L87.8572 18.2633ZM120.42 12.6101C117.278 12.6101 114.731 15.143 114.731 18.2633V27.986C114.731 29.0885 113.833 29.9782 112.725 29.9782C111.618 29.9782 110.72 29.0842 110.72 27.986V18.2633C110.72 12.9379 115.063 8.62571 120.42 8.62571C125.777 8.62571 130.121 12.9422 130.121 18.2633V27.986C130.121 29.0885 129.222 29.9782 128.115 29.9782C127.008 29.9782 126.109 29.0842 126.109 27.986V18.2633C126.109 15.1387 123.563 12.6101 120.42 12.6101ZM144.075 12.6144C140.847 12.6144 138.254 15.1898 138.254 18.3356V20.3875C138.254 23.529 140.843 26.1087 144.075 26.1087C145.195 26.1087 146.234 25.7979 147.107 25.2658C148.052 24.6912 149.287 24.9849 149.866 25.9214C150.445 26.8579 150.147 28.0881 149.206 28.6628C147.716 29.5738 145.957 30.0931 144.079 30.0931C138.667 30.0931 134.247 25.7639 134.247 20.3875V18.3356C134.247 12.9592 138.663 8.62997 144.079 8.62997C148.712 8.62997 152.562 11.7928 153.592 16.0497L153.997 17.7141L145.45 21.1707C144.424 21.5836 143.253 21.0941 142.836 20.0767C142.418 19.055 142.912 17.8929 143.939 17.48L149.053 15.4112C148.052 13.7382 146.208 12.6144 144.079 12.6144H144.075ZM166.06 12.6144C162.828 12.6144 160.239 15.1898 160.239 18.3356V20.3875C160.239 23.529 162.828 26.1087 166.06 26.1087C167.18 26.1087 168.219 25.7979 169.092 25.2658C169.531 24.9976 169.931 24.6741 170.285 24.2995C171.043 23.495 172.312 23.4567 173.121 24.2101C173.93 24.9636 173.968 26.2236 173.214 27.0282C172.618 27.6582 171.941 28.2073 171.196 28.6628C169.701 29.5738 167.947 30.0931 166.065 30.0931C160.652 30.0931 156.232 25.7639 156.232 20.3875V18.3356C156.232 12.9592 160.648 8.62997 166.065 8.62997C170.693 8.62997 174.547 11.7928 175.578 16.0497L175.982 17.7141L167.436 21.1707C166.41 21.5836 165.239 21.0941 164.821 20.0767C164.404 19.055 164.898 17.8929 165.924 17.48L171.038 15.4112C170.038 13.7382 168.194 12.6144 166.065 12.6144H166.06Z" fill="#cbd5e1"></path></g><g clip-path="url(#clip2_2287_5034)"><path d="M21.8702 39.1793C19.7632 39.1793 18.0495 37.3542 18.0495 35.111V4.06693C18.0495 3.51365 17.6862 3.1281 17.3605 3.1281C17.0348 3.1281 16.6715 3.51365 16.6715 4.06693V35.111C16.6715 37.3542 14.9579 39.1793 12.8508 39.1793C10.7438 39.1793 9.03012 37.3542 9.03012 35.111V10.8265C9.03012 10.2732 8.66684 9.8877 8.34114 9.8877C8.01544 9.8877 7.65216 10.2732 7.65216 10.8265V26.0982C7.65216 28.3414 5.93848 30.1665 3.83145 30.1665C1.72442 30.1665 0.0107422 28.3414 0.0107422 26.0982V18.7127C0.0107422 16.4695 1.83717 14.6444 4.08199 14.6444C4.23482 14.6444 4.38013 14.667 4.52043 14.707V10.8265C4.52043 8.58334 6.23411 6.75825 8.34114 6.75825C10.4482 6.75825 12.1618 8.58334 12.1618 10.8265V35.111C12.1618 35.6643 12.5251 36.0498 12.8508 36.0498C13.1765 36.0498 13.5398 35.6643 13.5398 35.111V4.06693C13.5398 1.82375 15.2535 -0.00134277 17.3605 -0.00134277C19.4675 -0.00134277 21.1812 1.82375 21.1812 4.06693V35.111C21.1812 35.6643 21.5445 36.0498 21.8702 36.0498C22.1959 36.0498 22.5592 35.6643 22.5592 35.111V10.8265C22.5592 8.58334 24.2729 6.75825 26.3799 6.75825C28.4869 6.75825 30.2006 8.58334 30.2006 10.8265V14.707C30.3409 14.667 30.4862 14.6444 30.639 14.6444C32.8839 14.6444 34.7103 16.4695 34.7103 18.7127V26.0982C34.7103 28.3414 32.9966 30.1665 30.8896 30.1665C28.7826 30.1665 27.0689 28.3414 27.0689 26.0982V10.8265C27.0689 10.2732 26.7056 9.8877 26.3799 9.8877C26.0542 9.8877 25.6909 10.2732 25.6909 10.8265V35.111C25.6909 37.3542 23.9772 39.1793 21.8702 39.1793ZM30.2006 17.7113V26.0982C30.2006 26.6515 30.5639 27.037 30.8896 27.037C31.2153 27.037 31.5786 26.6515 31.5786 26.0982V18.7127C31.5786 18.2045 31.1476 17.7739 30.639 17.7739C30.4862 17.7739 30.3409 17.7514 30.2006 17.7113ZM4.52043 17.7113C4.38013 17.7514 4.23482 17.7739 4.08199 17.7739C3.5734 17.7739 3.14247 18.2045 3.14247 18.7127V26.0982C3.14247 26.6515 3.50575 27.037 3.83145 27.037C4.15715 27.037 4.52043 26.6515 4.52043 26.0982V17.7113Z" fill="#cbd5e1"></path></g></g><defs><clipPath id="clip0_2287_5034"><rect width="176" height="44.3975" fill="#cbd5e1"></rect></clipPath><clipPath id="clip1_2287_5034"><rect width="130.772" height="35.8727" fill="#cbd5e1" transform="translate(45.2063 8.51917)"></rect></clipPath><clipPath id="clip2_2287_5034"><rect width="34.6996" height="39.1806" fill="#cbd5e1" transform="translate(0.0107422 -0.00134277)"></rect></clipPath></defs></svg>